<svg width="120" height="80" viewBox="0 0 160 80" fill="none" xmlns="http://www.w3.org/2000/svg">
<g id = "logo">
<path d="M29.2408 0.331491V11.7403C29.2408 14.4291 28.5054 16.4825 27.0345 17.9006C25.5636 19.3002 23.4783 20 20.7786 20C19.438 20 18.2371 19.8066 17.1758 19.4199C16.1332 19.0331 15.2767 18.4899 14.6064 17.7901C13.9176 18.4899 13.0518 19.0331 12.0091 19.4199C10.9665 19.8066 9.78418 20 8.46224 20C5.76252 20 3.67721 19.3002 2.20633 17.9006C0.735443 16.4825 0 14.4291 0 11.7403V0.331491H4.52437V11.6022C4.52437 13.1676 4.8502 14.3278 5.50186 15.0829C6.15351 15.8195 7.12169 16.1878 8.40639 16.1878C11.0316 16.1878 12.3443 14.6593 12.3443 11.6022V0.331491H16.8686V11.6022C16.8686 14.6593 18.1906 16.1878 20.8344 16.1878C23.4038 16.1878 24.6885 14.6593 24.6885 11.6022V0.331491H29.2408Z" fill="currentColor"/>
<path d="M97.6867 0.331491V11.7403C97.6867 14.4291 96.9513 16.4825 95.4804 17.9006C94.0095 19.3002 91.9242 20 89.2245 20C87.8839 20 86.683 19.8066 85.6217 19.4199C84.5791 19.0331 83.7226 18.4899 83.0524 17.7901C82.3635 18.4899 81.4977 19.0331 80.455 19.4199C79.4124 19.8066 78.2301 20 76.9082 20C74.2084 20 72.1231 19.3002 70.6522 17.9006C69.1814 16.4825 68.4459 14.4291 68.4459 11.7403V0.331491H72.9703V11.6022C72.9703 13.1676 73.2961 14.3278 73.9478 15.0829C74.5994 15.8195 75.5676 16.1878 76.8523 16.1878C79.4775 16.1878 80.7902 14.6593 80.7902 11.6022V0.331491H85.3145V11.6022C85.3145 14.6593 86.6365 16.1878 89.2803 16.1878C91.8497 16.1878 93.1344 14.6593 93.1344 11.6022V0.331491H97.6867Z" fill="currentColor"/>
<path d="M110.957 0C112.763 0 114.337 0.349908 115.677 1.04972C117.018 1.74954 118.061 2.78085 118.805 4.14365C119.55 5.50644 119.922 7.1547 119.922 9.0884V19.6685H115.398V15.0276H106.461V19.6685H101.992V9.0884C101.992 7.1547 102.365 5.50644 103.11 4.14365C103.854 2.78085 104.897 1.74954 106.238 1.04972C107.578 0.349908 109.151 0 110.957 0ZM115.398 11.4365V8.67403C115.398 7.07182 114.998 5.86556 114.197 5.05525C113.396 4.22652 112.307 3.81216 110.93 3.81216C109.533 3.81216 108.435 4.22652 107.634 5.05525C106.852 5.86556 106.461 7.07182 106.461 8.67403V11.4365H115.398Z" fill="currentColor"/>
<path d="M142.638 0.331491L134.176 19.6685H129.708L121.273 0.331491H126.161L132.109 14.1436L138.142 0.331491H142.638Z" fill="currentColor"/>
<path d="M160 18.011C159.069 18.6372 157.896 19.1252 156.481 19.4751C155.085 19.825 153.595 20 152.013 20C150.039 20 148.363 19.7606 146.985 19.2818C145.608 18.7845 144.565 18.1031 143.857 17.2376C143.15 16.3536 142.796 15.3499 142.796 14.2265C142.796 13.1952 143.085 12.2836 143.662 11.4917C144.239 10.6998 145.03 10.1105 146.036 9.72376C145.273 9.3186 144.677 8.76611 144.248 8.0663C143.839 7.36648 143.634 6.58379 143.634 5.71823C143.634 4.66851 143.96 3.71087 144.612 2.8453C145.263 1.97974 146.25 1.28913 147.572 0.773481C148.894 0.257827 150.514 0 152.431 0C153.698 0 154.936 0.128913 156.146 0.38674C157.356 0.62615 158.408 0.957641 159.302 1.38121L158.045 4.80663C156.332 4.01473 154.517 3.61878 152.599 3.61878C151.147 3.61878 150.048 3.83978 149.303 4.28177C148.577 4.70534 148.214 5.28545 148.214 6.0221C148.214 6.7035 148.456 7.22836 148.94 7.59668C149.443 7.94659 150.197 8.12155 151.203 8.12155H156.537V11.6575H150.923C149.788 11.6575 148.912 11.8508 148.298 12.2376C147.684 12.6243 147.376 13.186 147.376 13.9227C147.376 14.6961 147.767 15.3039 148.549 15.7459C149.35 16.1694 150.57 16.3812 152.208 16.3812C153.362 16.3812 154.517 16.2339 155.671 15.9392C156.825 15.6262 157.803 15.1934 158.604 14.6409L160 18.011Z" fill="currentColor"/>
<path d="M56.8231 11.2023H33.5484V7.82997H56.8231L52.7019 3.67492L55.0671 1.29033L63.2258 9.51613L55.0671 17.7419L52.7019 15.3574L56.8231 11.2023Z" fill="#6D31EE"/>
</g>
<g id = "search">
<path d="M11 19C15.4183 19 19 15.4183 19 11C19 6.58172 15.4183 3 11 3C6.58172 3 3 6.58172 3 11C3 15.4183 6.58172 19 11 19Z" stroke="#6D31EE" stroke-width="2" stroke-linecap="round" stroke-linejoin="round"/>
<path d="M21 21L16.65 16.65" stroke="#6D31EE" stroke-width="2" stroke-linecap="round" stroke-linejoin="round"/>
</g>
<g id = "age">
<path d="M8.68945 20H7.74023V13.8945C7.74023 13.3867 7.75586 12.9062 7.78711 12.4531C7.70508 12.5352 7.61328 12.6211 7.51172 12.7109C7.41016 12.8008 6.94531 13.1816 6.11719 13.8535L5.60156 13.1855L7.86914 11.4336H8.68945V20ZM14.7891 11.3105C15.5703 11.3105 16.1895 11.4922 16.6465 11.8555C17.1035 12.2188 17.332 12.7207 17.332 13.3613C17.332 13.7832 17.2012 14.168 16.9395 14.5156C16.6777 14.8633 16.2598 15.1797 15.6855 15.4648C16.3809 15.7969 16.875 16.1465 17.168 16.5137C17.4609 16.877 17.6074 17.2988 17.6074 17.7793C17.6074 18.4902 17.3594 19.0586 16.8633 19.4844C16.3672 19.9062 15.6875 20.1172 14.8242 20.1172C13.9102 20.1172 13.207 19.918 12.7148 19.5195C12.2227 19.1172 11.9766 18.5488 11.9766 17.8145C11.9766 16.834 12.5742 16.0703 13.7695 15.5234C13.2305 15.2188 12.8438 14.8906 12.6094 14.5391C12.375 14.1836 12.2578 13.7871 12.2578 13.3496C12.2578 12.7285 12.4863 12.2344 12.9434 11.8672C13.4043 11.4961 14.0195 11.3105 14.7891 11.3105ZM12.9375 17.8379C12.9375 18.3066 13.0996 18.6719 13.4238 18.9336C13.752 19.1953 14.2109 19.3262 14.8008 19.3262C15.3828 19.3262 15.8359 19.1895 16.1602 18.916C16.4844 18.6426 16.6465 18.2676 16.6465 17.791C16.6465 17.4121 16.4941 17.0762 16.1895 16.7832C15.8848 16.4863 15.3535 16.1992 14.5957 15.9219C14.0137 16.1719 13.5918 16.4492 13.3301 16.7539C13.0684 17.0547 12.9375 17.416 12.9375 17.8379ZM14.7773 12.1016C14.2891 12.1016 13.9062 12.2188 13.6289 12.4531C13.3516 12.6875 13.2129 13 13.2129 13.3906C13.2129 13.75 13.3281 14.0586 13.5586 14.3164C13.7891 14.5742 14.2148 14.832 14.8359 15.0898C15.3945 14.8555 15.7891 14.6035 16.0195 14.334C16.2539 14.0645 16.3711 13.75 16.3711 13.3906C16.3711 12.9961 16.2285 12.6836 15.9434 12.4531C15.6621 12.2188 15.2734 12.1016 14.7773 12.1016ZM22.0605 15.3652H24.4746V16.1738H22.0605V18.6699H21.2461V16.1738H18.8438V15.3652H21.2461V12.8574H22.0605V15.3652Z" fill="#A1A6B4"/>
<rect x="0.5" y="0.5" width="29" height="29" rx="14.5" stroke="#A1A6B4"/>
</g>
 <g id = "arrow">
<path d="M24.3536 6.35355C24.5488 6.15829 24.5488 5.84171 24.3536 5.64645L21.1716 2.46447C20.9763 2.2692 20.6597 2.2692 20.4645 2.46447C20.2692 2.65973 20.2692 2.97631 20.4645 3.17157L23.2929 6L20.4645 8.82843C20.2692 9.02369 20.2692 9.34027 20.4645 9.53553C20.6597 9.7308 20.9763 9.7308 21.1716 9.53553L24.3536 6.35355ZM4 6.5H24V5.5H4V6.5Z" fill="#121723"/>
</g>
<g id = "russianFlag">
<rect width="24" height="20" fill="#121723"/>
<path fill-rule="evenodd" clip-rule="evenodd" d="M4 4H20V16H4V4Z" fill="white"/>
<path fill-rule="evenodd" clip-rule="evenodd" d="M4 8H20V16H4V8Z" fill="#0039A6"/>
<path fill-rule="evenodd" clip-rule="evenodd" d="M4 12H20V16H4V12Z" fill="#D52B1E"/>
</g>
<g>


</g>
<g id = "GreatBritainFlag">
<rect width="24" height="20" fill="#121723"/>
<path d="M0 4H23.8217V16H0V4Z" fill="#0039A6"/>
<path d="M0 4V5.34063L21.158 16H23.8217V14.6594L2.66365 4H0ZM23.8217 4V5.34063L2.66365 16H0V14.6594L21.158 4H23.8217Z" fill="white"/>
<path d="M9.92646 4V16H13.8952V4H9.92646ZM0 8.00078V11.9992H23.8217V8.00078H0Z" fill="white"/>
<path d="M0 8.8V11.2H23.8217V8.8H0ZM10.7197 4V16H13.1019V4H10.7197ZM0 16L7.93977 11.9992H9.71709L1.77499 16H0ZM0 4L7.93977 8.00078H6.16478L0 4.89531V4ZM14.1069 8.00078L22.0467 4H23.8217L15.8819 8.00078H14.1069ZM23.8217 16L15.8819 11.9992H17.6569L23.8217 15.1047V16Z" fill="#D52B1E"/>
</g>
<g id = "wave">
<path d="M1 1C9.24396 1 9.24396 11 17.4879 11C25.7319 11 25.7319 1 33.9758 1C42.2198 1 42.2198 11 50.4445 11C58.6887 11 58.6887 1 66.9131 1C75.1572 1 75.1572 11 83.3816 11C91.6257 11 91.6257 1 99.8693 1C108.113 1 108.113 11 116.358 11C124.601 11 124.601 1 132.845 1C141.089 1 141.089 11 149.334 11C157.577 11 157.577 1 165.821 1C174.065 1 174.065 11 182.309 11C190.553 11 190.553 1 198.797 1C207.041 1 207.041 11 215.266 11C223.51 11 223.51 1 231.734 1C239.978 1 239.978 11 248.203 11C256.447 11 256.447 1 264.69 1C272.935 1 272.935 11 281.179 11C289.422 11 289.422 1 297.666 1C305.911 1 305.911 11 314.155 11C322.398 11 322.398 1 330.642 1C338.886 1 338.886 11 347.13 11C355.374 11 355.374 1 363.618 1C371.862 1 371.862 11 380.087 11C388.331 11 388.331 1 396.556 1C404.8 1 404.8 11 413.024 11C421.268 11 421.268 1 429.512 1C437.756 1 437.756 11 446 11" stroke="#A1A6B4" stroke-miterlimit="10" stroke-linecap="square"/>
</g>
<g id = "Bigwave">
<path opacity="0.6" d="M-146 1C-137.756 1 -137.756 11 -129.512 11C-121.268 11 -121.268 1 -113.024 1C-104.78 1 -104.78 11 -96.5555 11C-88.3113 11 -88.3113 1 -80.0869 1C-71.8428 1 -71.8428 11 -63.6184 11C-55.3743 11 -55.3743 1 -47.1307 1C-38.8866 1 -38.8866 11 -30.6424 11C-22.3989 11 -22.3989 1 -14.1548 1C-5.91061 1 -5.91062 11 2.33353 11C10.5771 11 10.5771 1 18.8212 1C27.0652 1 27.0652 11 35.3091 11C43.5531 11 43.5531 1 51.7971 1C60.041 1 60.041 11 68.2657 11C76.5099 11 76.5099 1 84.7343 1C92.9784 1 92.9784 11 101.203 11C109.447 11 109.447 1 117.69 1C125.935 1 125.935 11 134.179 11C142.422 11 142.422 1 150.666 1C158.911 1 158.911 11 167.155 11C175.398 11 175.398 1 183.642 1C191.886 1 191.886 11 200.13 11C208.374 11 208.374 1 216.618 1C224.862 1 224.862 11 233.087 11C241.331 11 241.331 1 249.556 1C257.8 1 257.8 11 266.024 11C274.268 11 274.268 1 282.512 1M283 1C291.244 1 291.244 11 299.488 11C307.732 11 307.732 1 315.976 1C324.22 1 324.22 11 332.444 11C340.689 11 340.689 1 348.913 1C357.157 1 357.157 11 365.382 11C373.626 11 373.626 1 381.869 1C390.113 1 390.113 11 398.358 11C406.601 11 406.601 1 414.845 1C423.089 1 423.089 11 431.333 11C439.577 11 439.577 1 447.821 1C456.065 1 456.065 11 464.309 11C472.553 11 472.553 1 480.797 1C489.041 1 489.041 11 497.266 11C505.51 11 505.51 1 513.734 1C521.978 1 521.978 11 530.203 11C538.447 11 538.447 1 546.69 1C554.935 1 554.935 11 563.179 11C571.422 11 571.422 1 579.666 1C587.911 1 587.911 11 596.155 11C604.398 11 604.398 1 612.642 1C620.886 1 620.886 11 629.13 11C637.374 11 637.374 1 645.618 1C653.862 1 653.862 11 662.087 11C670.331 11 670.331 1 678.555 1C686.8 1 686.8 11 695.024 11C703.268 11 703.268 1 711.512 1C719.756 1 719.756 11 728 11C736.244 11 736.244 1 744.488 1C752.732 1 752.732 11 760.976 11C769.22 11 769.22 1 777.444 1C785.689 1 785.689 11 793.913 11C802.157 11 802.157 1 810.382 1C818.626 1 818.626 11 826.869 11C835.113 11 835.113 1 843.358 1C851.601 1 851.601 11 859.845 11C868.089 11 868.089 1 876.333 1C884.577 1 884.577 11 892.821 11C901.065 11 901.065 1 909.309 1C917.553 1 917.553 11 925.797 11C934.041 11 934.041 1 942.266 1C950.51 1 950.51 11 958.734 11C966.978 11 966.978 1 975.203 1C983.447 1 983.447 11 991.69 11C999.935 11 999.935 1 1008.18 1C1016.42 1 1016.42 11 1024.67 11C1032.91 11 1032.91 1 1041.15 1C1049.4 1 1049.4 11 1057.64 11C1065.89 11 1065.89 1 1074.13 1C1082.37 1 1082.37 11 1090.62 11C1098.86 11 1098.86 1 1107.09 1C1115.33 1 1115.33 11 1123.56 11C1131.8 11 1131.8 1 1140.02 1C1148.27 1 1148.27 11 1156.51 11C1164.76 11 1164.76 1 1173 1M1174 1C1182.24 1 1182.24 11 1190.49 11C1198.73 11 1198.73 1 1206.98 1C1215.22 1 1215.22 11 1223.44 11C1231.69 11 1231.69 1 1239.91 1C1248.16 1 1248.16 11 1256.38 11C1264.63 11 1264.63 1 1272.87 1C1281.11 1 1281.11 11 1289.36 11C1297.6 11 1297.6 1 1305.85 1C1314.09 1 1314.09 11 1322.33 11C1330.58 11 1330.58 1 1338.82 1C1347.07 1 1347.07 11 1355.31 11C1363.55 11 1363.55 1 1371.8 1C1380.04 1 1380.04 11 1388.27 11C1396.51 11 1396.51 1 1404.73 1C1412.98 1 1412.98 11 1421.2 11C1429.45 11 1429.45 1 1437.69 1C1445.93 1 1445.93 11 1454.18 11C1462.42 11 1462.42 1 1470.67 1C1478.91 1 1478.91 11 1487.15 11C1495.4 11 1495.4 1 1503.64 1C1511.89 1 1511.89 11 1520.13 11C1528.37 11 1528.37 1 1536.62 1C1544.86 1 1544.86 11 1553.09 11C1561.33 11 1561.33 1 1569.56 1C1577.8 1 1577.8 11 1586.02 11C1594.27 11 1594.27 1 1602.51 1C1610.76 1 1610.76 11 1619 11M1620 11C1628.24 11 1628.24 1 1636.49 1C1644.73 1 1644.73 11 1652.98 11C1661.22 11 1661.22 1 1669.44 1C1677.69 1 1677.69 11 1685.91 11C1694.16 11 1694.16 1 1702.38 1C1710.63 1 1710.63 11 1718.87 11C1727.11 11 1727.11 1 1735.36 1C1743.6 1 1743.6 11 1751.85 11C1760.09 11 1760.09 1 1768.33 1C1776.58 1 1776.58 11 1784.82 11C1793.07 11 1793.07 1 1801.31 1C1809.55 1 1809.55 11 1817.8 11C1826.04 11 1826.04 1 1834.27 1C1842.51 1 1842.51 11 1850.73 11C1858.98 11 1858.98 1 1867.2 1C1875.45 1 1875.45 11 1883.69 11C1891.93 11 1891.93 1 1900.18 1C1908.42 1 1908.42 11 1916.67 11C1924.91 11 1924.91 1 1933.15 1C1941.4 1 1941.4 11 1949.64 11C1957.89 11 1957.89 1 1966.13 1C1974.37 1 1974.37 11 1982.62 11C1990.86 11 1990.86 1 1999.09 1C2007.33 1 2007.33 11 2015.56 11C2023.8 11 2023.8 1 2032.02 1C2040.27 1 2040.27 11 2048.51 11C2056.76 11 2056.76 1 2065 1" stroke="#F5F6F7" stroke-miterlimit="10" stroke-linecap="square"/>
</g>
  <g id = "youtube">
<path d="M21.543 6.498C22 8.28 22 12 22 12C22 12 22 15.72 21.543 17.502C21.289 18.487 20.546 19.262 19.605 19.524C17.896 20 12 20 12 20C12 20 6.107 20 4.395 19.524C3.45 19.258 2.708 18.484 2.457 17.502C2 15.72 2 12 2 12C2 12 2 8.28 2.457 6.498C2.711 5.513 3.454 4.738 4.395 4.476C6.107 4 12 4 12 4C12 4 17.896 4 19.605 4.476C20.55 4.742 21.292 5.516 21.543 6.498ZM10 15.5L16 12L10 8.5V15.5Z" fill="#D2D5DD"/>
<defs>
<clipPath id="clip0_24531_5372">
<rect width="24" height="24" fill="white"/>
</clipPath>
</defs>
  </g>
  <g id = "ok">
<path d="M10.2338 8.14624C10.2338 9.0928 11.0569 9.86023 12.0724 9.86023C13.088 9.86023 13.9111 9.0928 13.9111 8.14624C13.9111 7.19968 13.088 6.43231 12.0724 6.43231C11.0569 6.43231 10.2338 7.19968 10.2338 8.14624Z" fill="#D2D5DD"/>
<path fill-rule="evenodd" clip-rule="evenodd" d="M8 2C4.68629 2 2 4.68629 2 8V16C2 19.3137 4.68629 22 8 22H16C19.3137 22 22 19.3137 22 16V8C22 4.68629 19.3137 2 16 2H8ZM7.62436 8.14617C7.62436 5.85633 9.61571 4 12.0724 4C14.5292 4 16.5206 5.85633 16.5206 8.14617C16.5206 10.4361 14.5292 12.2925 12.0724 12.2925C9.61571 12.2925 7.62436 10.4361 7.62436 8.14617ZM16.5472 14.4252C16.4907 14.4674 15.4236 15.2535 13.6427 15.5916L16.3307 18.0748C16.8034 18.5147 16.804 19.2285 16.3321 19.6691C15.8602 20.1097 15.0946 20.1104 14.6216 19.6704L12.012 17.3016L9.64177 19.6552C9.4046 19.8846 9.08805 20 8.77109 20C8.46897 20 8.16645 19.8952 7.93169 19.6842C7.45075 19.252 7.43691 18.5384 7.90062 18.0902L10.4519 15.6048C8.62134 15.2746 7.51009 14.468 7.45295 14.4252C6.93171 14.0357 6.84811 13.3262 7.26591 12.8404C7.6839 12.3547 8.44492 12.2767 8.96616 12.6662C8.97719 12.6744 10.1394 13.4883 12.012 13.4895C13.8847 13.4883 15.0228 12.6744 15.0338 12.6662C15.5551 12.2767 16.3163 12.3547 16.7341 12.8404C17.1519 13.3262 17.0683 14.0357 16.5472 14.4252Z" fill="#D2D5DD"/>
<defs>
<clipPath id="clip0_24531_5373">
<rect width="24" height="24" fill="white"/>
</clipPath>
</defs>
  </g>
  <g id = "vk">
<path fill-rule="evenodd" clip-rule="evenodd" d="M2 8C2 4.68652 4.68652 2 8 2H16C19.3135 2 22 4.68652 22 8V16C22 19.3135 19.3135 22 16 22H8C4.68652 22 2 19.3135 2 16V8ZM17.3438 13.4473C17.7139 13.7778 18.0845 14.1089 18.4121 14.4795C18.5415 14.626 18.6665 14.7754 18.7769 14.9346C18.835 15.0181 18.8892 15.104 18.938 15.1934C19.0425 15.3848 19.0439 15.5859 18.9727 15.7383C18.9058 15.8809 18.7754 15.981 18.606 15.9917L16.4209 15.9912C15.8569 16.0356 15.4077 15.8208 15.0293 15.4575C14.7271 15.1675 14.4468 14.8584 14.1558 14.5586C14.0366 14.4355 13.9116 14.3198 13.7622 14.2285C13.5962 14.1265 13.4419 14.0991 13.3086 14.1455C13.2031 14.1821 13.1104 14.2656 13.0352 14.3955C12.8613 14.6938 12.8213 15.0244 12.8047 15.3564C12.7812 15.8418 12.6255 15.9688 12.1089 15.9917C11.0044 16.0405 9.95654 15.8823 8.98242 15.3574C8.12305 14.8945 7.45801 14.2417 6.87842 13.502C5.75 12.0601 4.88574 10.4775 4.10938 8.84912C3.93457 8.48242 4.0625 8.28662 4.4917 8.27881C5.20459 8.26611 5.91797 8.26758 6.63086 8.27832C6.9209 8.28271 7.11279 8.43896 7.22461 8.69727C7.60986 9.59082 8.08203 10.4409 8.67432 11.229L8.78369 11.3721C8.90918 11.5317 9.04541 11.6826 9.22217 11.7969C9.4751 11.9604 9.66797 11.9062 9.7876 11.6401C9.86377 11.4707 9.89697 11.2896 9.91357 11.1084C9.97021 10.4873 9.97705 9.86621 9.87891 9.24756C9.81787 8.86035 9.58643 8.61035 9.17725 8.53711C8.96826 8.49951 8.99902 8.42676 9.10059 8.31445C9.27637 8.12061 9.44141 8.00049 9.771 8.00049L12.2397 8C12.6284 8.07178 12.7158 8.23633 12.7686 8.60596L12.771 11.1909C12.7661 11.334 12.8472 11.7578 13.1191 11.8511C13.3374 11.9189 13.4814 11.7539 13.6118 11.624C14.2036 11.0317 14.6255 10.333 15.0034 9.60986C15.1699 9.29102 15.314 8.96094 15.4536 8.63037C15.5024 8.51562 15.5635 8.42822 15.6455 8.36816C15.7378 8.30029 15.8564 8.26758 16.0117 8.26953L18.3887 8.27246C18.4585 8.27246 18.5298 8.27295 18.5991 8.28418C18.8101 8.31836 18.9404 8.37939 18.9985 8.4834C19.0503 8.57666 19.0439 8.70508 18.9854 8.87939C18.7979 9.43555 18.4399 9.90283 18.0835 10.3677L18.041 10.4233C17.6436 10.9409 17.2202 11.4399 16.8271 11.96C16.4658 12.4346 16.4941 12.6738 16.9429 13.0864C17.0752 13.208 17.2095 13.3276 17.3438 13.4473Z" fill="#D2D5DD"/>
  </g>
</svg>
